<svg width="32" height="33" viewBox="0 0 32 33" fill="none" xmlns="http://www.w3.org/2000/svg">
<g id="skill-icons:instagram" clip-path="url(#clip0_859_1249)" filter="url(#filter0_d_859_1249)">
<g id="Group">
<path id="Vector" d="M24.5 0.336426H7.5C3.35786 0.336426 0 3.69429 0 7.83643V24.8364C0 28.9786 3.35786 32.3364 7.5 32.3364H24.5C28.6421 32.3364 32 28.9786 32 24.8364V7.83643C32 3.69429 28.6421 0.336426 24.5 0.336426Z" fill="url(#paint0_radial_859_1249)"/>
<path id="Vector_2" d="M24.5 0.336426H7.5C3.35786 0.336426 0 3.69429 0 7.83643V24.8364C0 28.9786 3.35786 32.3364 7.5 32.3364H24.5C28.6421 32.3364 32 28.9786 32 24.8364V7.83643C32 3.69429 28.6421 0.336426 24.5 0.336426Z" fill="url(#paint1_radial_859_1249)"/>
<path id="Vector_3" d="M16.0011 3.83643C12.6064 3.83643 12.1803 3.8513 10.847 3.91193C9.51625 3.97293 8.60787 4.18355 7.81313 4.49268C6.99088 4.81193 6.2935 5.23905 5.59875 5.93405C4.90338 6.62893 4.47625 7.3263 4.156 8.14818C3.846 8.94318 3.63512 9.85193 3.57525 11.1821C3.51562 12.5154 3.5 12.9417 3.5 16.3366C3.5 19.7314 3.515 20.1562 3.5755 21.4894C3.63675 22.8202 3.84738 23.7285 4.15625 24.5233C4.47575 25.3456 4.90288 26.0429 5.59788 26.7377C6.2925 27.4331 6.98988 27.8612 7.8115 28.1804C8.60687 28.4896 9.51537 28.7002 10.8459 28.7612C12.1792 28.8218 12.605 28.8367 15.9996 28.8367C19.3948 28.8367 19.8195 28.8218 21.1528 28.7612C22.4835 28.7002 23.3929 28.4896 24.1882 28.1804C25.0101 27.8612 25.7065 27.4331 26.401 26.7377C27.0964 26.0429 27.5234 25.3456 27.8438 24.5237C28.151 23.7285 28.362 22.8199 28.4245 21.4897C28.4844 20.1564 28.5 19.7314 28.5 16.3366C28.5 12.9417 28.4844 12.5157 28.4245 11.1823C28.362 9.85155 28.151 8.9433 27.8438 8.14855C27.5234 7.3263 27.0964 6.62893 26.401 5.93405C25.7057 5.2388 25.0104 4.81168 24.1875 4.4928C23.3906 4.18355 22.4817 3.9728 21.151 3.91193C19.8176 3.8513 19.3931 3.83643 15.9972 3.83643H16.0011ZM14.8798 6.08905C15.2126 6.08855 15.584 6.08905 16.0011 6.08905C19.3388 6.08905 19.7342 6.10105 21.0522 6.16093C22.271 6.21668 22.9325 6.4203 23.3731 6.59143C23.9565 6.81793 24.3724 7.0888 24.8096 7.52643C25.2471 7.96393 25.5179 8.38055 25.745 8.96393C25.9161 9.40393 26.12 10.0654 26.1755 11.2842C26.2354 12.6019 26.2484 12.9977 26.2484 16.3337C26.2484 19.6697 26.2354 20.0655 26.1755 21.3832C26.1198 22.6019 25.9161 23.2634 25.745 23.7036C25.5185 24.2869 25.2471 24.7023 24.8096 25.1396C24.3721 25.5771 23.9568 25.8478 23.3731 26.0744C22.933 26.2463 22.271 26.4494 21.0522 26.5052C19.7345 26.5651 19.3388 26.5781 16.0011 26.5781C12.6634 26.5781 12.2677 26.5651 10.9501 26.5052C9.73137 26.4489 9.06987 26.2453 8.62887 26.0742C8.04562 25.8475 7.62887 25.5768 7.19137 25.1393C6.75387 24.7018 6.48312 24.2862 6.256 23.7026C6.08488 23.2624 5.881 22.6009 5.8255 21.3822C5.76562 20.0644 5.75362 19.6687 5.75362 16.3306C5.75362 12.9926 5.76562 12.5988 5.8255 11.2811C5.88125 10.0623 6.08488 9.4008 6.256 8.96018C6.48263 8.3768 6.75388 7.96018 7.1915 7.52268C7.629 7.08518 8.04562 6.8143 8.629 6.5873C9.06962 6.41543 9.73137 6.2123 10.9501 6.1563C12.1032 6.10418 12.5501 6.08855 14.8798 6.08593V6.08905ZM22.6736 8.16455C21.8455 8.16455 21.1736 8.8358 21.1736 9.66405C21.1736 10.4922 21.8455 11.1641 22.6736 11.1641C23.5018 11.1641 24.1736 10.4922 24.1736 9.66405C24.1736 8.83593 23.5018 8.16405 22.6736 8.16405V8.16455ZM16.0011 9.91718C12.4561 9.91718 9.58187 12.7914 9.58187 16.3366C9.58187 19.8817 12.4561 22.7546 16.0011 22.7546C19.5462 22.7546 22.4195 19.8817 22.4195 16.3366C22.4195 12.7916 19.546 9.91718 16.0009 9.91718H16.0011ZM16.0011 12.1698C18.3022 12.1698 20.1679 14.0352 20.1679 16.3366C20.1679 18.6377 18.3022 20.5033 16.0011 20.5033C13.6999 20.5033 11.8345 18.6377 11.8345 16.3366C11.8345 14.0352 13.6999 12.1698 16.0011 12.1698Z" fill="white"/>
</g>
</g>
<defs>
<filter id="filter0_d_859_1249" x="-4" y="0.336426" width="40" height="40" filterUnits="userSpaceOnUse" color-interpolation-filters="sRGB">
<feFlood flood-opacity="0" result="BackgroundImageFix"/>
<feColorMatrix in="SourceAlpha" type="matrix" values="0 0 0 0 0 0 0 0 0 0 0 0 0 0 0 0 0 0 127 0" result="hardAlpha"/>
<feOffset dy="4"/>
<feGaussianBlur stdDeviation="2"/>
<feComposite in2="hardAlpha" operator="out"/>
<feColorMatrix type="matrix" values="0 0 0 0 0 0 0 0 0 0 0 0 0 0 0 0 0 0 0.25 0"/>
<feBlend mode="normal" in2="BackgroundImageFix" result="effect1_dropShadow_859_1249"/>
<feBlend mode="normal" in="SourceGraphic" in2="effect1_dropShadow_859_1249" result="shape"/>
</filter>
<radialGradient id="paint0_radial_859_1249" cx="0" cy="0" r="1" gradientUnits="userSpaceOnUse" gradientTransform="translate(8.5 34.801) rotate(-90) scale(31.7144 29.4969)">
<stop stop-color="#FFDD55"/>
<stop offset="0.1" stop-color="#FFDD55"/>
<stop offset="0.5" stop-color="#FF543E"/>
<stop offset="1" stop-color="#C837AB"/>
</radialGradient>
<radialGradient id="paint1_radial_859_1249" cx="0" cy="0" r="1" gradientUnits="userSpaceOnUse" gradientTransform="translate(-5.36012 2.64155) rotate(78.681) scale(14.1765 58.436)">
<stop stop-color="#3771C8"/>
<stop offset="0.128" stop-color="#3771C8"/>
<stop offset="1" stop-color="#6600FF" stop-opacity="0"/>
</radialGradient>
<clipPath id="clip0_859_1249">
<rect width="32" height="32" fill="white" transform="translate(0 0.336426)"/>
</clipPath>
</defs>
</svg>
